<svg id="Capa_1" data-name="Capa 1" xmlns="http://www.w3.org/2000/svg" viewBox="0 0 1707 218.04"><defs><style>.cls-1{fill:#9eb3bc;}.cls-2{fill:#0d9161;}.cls-3{fill:#708b27;}.cls-4{fill:#ffd000;}.cls-5{fill:#f70878;}</style></defs><title>SVG</title><path class="cls-1" d="M359.29,647.76V446.37h37.93V613.53l97.7.17v34.06Z" transform="translate(-156 -436.98)"/><path class="cls-1" d="M653.66,606.68c-6.56,20.26-29.67,46.21-79,46.21-23.68,0-47.36-5.7-63.9-24a58.55,58.55,0,0,1-12.84-21.68c-3.14-10.26-3.14-19.68-3.14-41.07V446.37h37.94v123.8c0,12,0,16.26,2,22.25,3.71,12,14.55,24,41.36,24,4.85,0,32.52,0,40.79-22.82,2.28-6.56,2.57-12,2.57-25.38V446.37h37.65v116.1C657.08,585.58,657.37,595.27,653.66,606.68Z" transform="translate(-156 -436.98)"/><path class="cls-1" d="M827.94,632.07c-24.25,20.54-56.77,20.82-65.89,20.82-12,0-50.49-.57-78.45-29.95-12-13.5-18-36.6-20.51-41.17l42.48,6.09C714.41,601,731,618.09,768,618.09a70.18,70.18,0,0,0,14.83-1.42c4.28-.86,24-6.28,24-25.1a20.55,20.55,0,0,0-3.71-12c-6.84-9.12-25.1-11.69-35.08-14l-24-5.42c-10.26-2.28-21.39-4.57-30.52-9.42-9.41-4.84-28.81-17.68-28.81-46.78,0-4.56.57-17.68,7.7-29.66,9.13-15.41,31.1-33.09,71.89-33.09,18,0,53.34,2.85,81.29,40.79l-31.09,23.11c-6.27-10-20.54-30-52.2-30-2,0-27.38-.28-35.65,15.41a18,18,0,0,0-2.29,9.13,17,17,0,0,0,2.57,9.12c4.85,8.28,16,10.84,34.51,14.84l20.83,4.56c19.11,4.28,40.22,10,53.62,25.67,5.71,6.28,11.7,15.41,11.7,34C847.62,606.11,841.92,620.09,827.94,632.07Z" transform="translate(-156 -436.98)"/><path class="cls-1" d="M943.74,480.32V647.76H906.09V480.32l-59.94-.73v-34h163.91v34Z" transform="translate(-156 -436.98)"/><path class="cls-1" d="M1163.93,619.83c-4.56,4.85-16.26,16.54-34.23,23.1-6.27,2.29-18,5.71-35.08,5.71-28.53,0-50.21-9.42-69-31.1-18.83-21.39-26.82-46.49-26.82-74.45a124,124,0,0,1,6-39.07c13.12-40.22,47.64-67,90.71-67,38.8,0,61.9,21.11,71.31,31.95,10.56,12,25.39,35.37,25.11,73.88C1191.89,555.36,1190.46,591,1163.93,619.83Z" transform="translate(-156 -436.98)"/><path class="cls-1" d="M1360.49,647.76l3.7-165.44-43.64,165.44h-33.94L1243,482.32l3.71,165.44h-36.79V446.37h54.76L1304,595.84l38.79-149.47h54.48V647.76Z" transform="translate(-156 -436.98)"/><path class="cls-1" d="M1423,647.76V443.41h46.84V647.76Z" transform="translate(-156 -436.98)"/><path class="cls-1" d="M1654.57,618.67c-9.41,12-31.38,34.22-71.88,34.22a97.89,97.89,0,0,1-40.51-8.55c-22.82-10.84-53.63-38.23-53.63-97.84,0-10.84,0-39.65,18.54-66.18,9.7-14,32.81-39.08,77-39.08,38.51,0,58.76,19.11,67.89,31.95,6.56,9.7,18,36.21,13.69,46.85l-36.18-4.26a64.1,64.1,0,0,0-6-18.63c-7.7-14.26-22.82-21.68-38.8-21.4a51.57,51.57,0,0,0-23.39,5.42c-14.83,7.42-32,26.82-32,64.47,0,5.71.29,29.67,12,47.64a52.76,52.76,0,0,0,43.92,24c15.69,0,27.39-6.28,37.09-18.26a88.76,88.76,0,0,0,8-12.26,101.58,101.58,0,0,0,3.71-10l38,5C1670,594.54,1661.42,609.82,1654.57,618.67Z" transform="translate(-156 -436.98)"/><path class="cls-1" d="M1843.32,632.07c-24.25,20.54-56.77,20.82-65.89,20.82-12,0-50.49-.57-78.45-29.95-12-13.5-18-36.6-20.51-41.17l42.48,6.09c8.84,13.12,25.38,30.23,62.47,30.23a70.18,70.18,0,0,0,14.83-1.42c4.28-.86,24-6.28,24-25.1a20.48,20.48,0,0,0-3.71-12c-6.84-9.12-25.1-11.69-35.08-14l-24-5.42c-10.27-2.28-21.4-4.57-30.53-9.42-9.41-4.84-28.81-17.68-28.81-46.78,0-4.56.57-17.68,7.7-29.66,9.13-15.41,31.1-33.09,71.89-33.09,18,0,53.34,2.85,81.29,40.79l-31.09,23.11c-6.27-10-20.54-30-52.2-30-2,0-27.38-.28-35.65,15.41a18,18,0,0,0-2.29,9.13,17,17,0,0,0,2.57,9.12c4.85,8.28,16,10.84,34.51,14.84l20.83,4.56c19.11,4.28,40.22,10,53.62,25.67,5.71,6.28,11.7,15.41,11.7,34C1863,606.11,1857.3,620.09,1843.32,632.07Z" transform="translate(-156 -436.98)"/><path class="cls-1" d="M324.14,618.67c-9.41,12-31.37,34.22-71.88,34.22a97.85,97.85,0,0,1-40.5-8.55c-22.82-10.84-53.63-38.23-53.63-97.84,0-10.84,0-39.65,18.54-66.18,9.7-14,32.8-39.08,77-39.08,38.51,0,58.76,19.11,67.89,31.95,6.56,9.7,17.95,36.21,13.69,46.85l-36.19-4.26a63.78,63.78,0,0,0-6-18.63c-7.7-14.26-22.82-21.68-38.79-21.4a51.53,51.53,0,0,0-23.39,5.42c-14.84,7.42-32,26.82-32,64.47,0,5.71.29,29.67,12,47.64a52.8,52.8,0,0,0,43.93,24c15.69,0,27.38-6.28,37.08-18.26a90.14,90.14,0,0,0,8-12.26,104.28,104.28,0,0,0,3.71-10l38,5C339.53,594.54,331,609.82,324.14,618.67Z" transform="translate(-156 -436.98)"/><path class="cls-1" d="M357.16,649.89V448.5H395.1V615.66l97.69.17v34.06Z" transform="translate(-156 -436.98)"/><path class="cls-1" d="M651.53,608.81C645,629.07,621.87,655,572.52,655c-23.68,0-47.36-5.7-63.9-24a58.55,58.55,0,0,1-12.84-21.68c-3.13-10.27-3.13-19.68-3.13-41.07V448.5h37.94V572.3c0,12,0,16.26,2,22.25,3.71,12,14.55,24,41.36,24,4.85,0,32.52,0,40.79-22.82,2.29-6.56,2.57-12,2.57-25.39V448.5H655V564.6C655,587.7,655.24,597.4,651.53,608.81Z" transform="translate(-156 -436.98)"/><path class="cls-1" d="M825.81,634.2C801.56,654.74,769.05,655,759.92,655c-12,0-50.49-.57-78.45-29.95-12-13.5-18-36.61-20.51-41.17L703.44,590c8.84,13.12,25.38,30.23,62.47,30.23a70.18,70.18,0,0,0,14.83-1.42c4.28-.86,24-6.28,24-25.11a20.47,20.47,0,0,0-3.71-12c-6.84-9.12-25.1-11.69-35.08-14l-24-5.42c-10.27-2.29-21.4-4.57-30.53-9.42-9.41-4.85-28.81-17.68-28.81-46.78,0-4.56.58-17.68,7.71-29.66,9.12-15.41,31.09-33.09,71.88-33.09,18,0,53.34,2.85,81.3,40.79l-31.1,23.1c-6.27-10-20.54-29.95-52.2-29.95-2,0-27.38-.28-35.65,15.41a18,18,0,0,0-2.29,9.12,17,17,0,0,0,2.57,9.13c4.85,8.27,16,10.84,34.52,14.84l20.82,4.56c19.11,4.28,40.22,10,53.63,25.67,5.7,6.28,11.69,15.41,11.69,34C845.49,608.24,839.79,622.22,825.81,634.2Z" transform="translate(-156 -436.98)"/><path class="cls-1" d="M941.62,482.45V649.89H904V482.45L844,481.72V447.66h163.91v34.06Z" transform="translate(-156 -436.98)"/><path class="cls-1" d="M1161.8,622c-4.56,4.85-16.25,16.54-34.23,23.1-6.27,2.28-18,5.71-35.08,5.71-28.53,0-50.2-9.42-69-31.1-18.83-21.39-26.82-46.49-26.82-74.45a124,124,0,0,1,6-39.08c13.13-40.22,47.64-67,90.71-67,38.8,0,61.9,21.11,71.32,31.95,10.55,12,25.38,35.37,25.1,73.88C1189.76,557.49,1188.33,593.15,1161.8,622Z" transform="translate(-156 -436.98)"/><path class="cls-1" d="M1358.36,649.89l3.71-165.45-43.65,165.45h-33.94l-43.65-165.45,3.71,165.45h-36.79V448.5h54.76L1301.88,598l38.79-149.47h54.48V649.89Z" transform="translate(-156 -436.98)"/><path class="cls-1" d="M1420.9,649.89V445.54h46.83V649.89Z" transform="translate(-156 -436.98)"/><path class="cls-1" d="M1652.44,620.79c-9.41,12-31.38,34.23-71.88,34.23a97.89,97.89,0,0,1-40.51-8.55c-22.82-10.84-53.62-38.23-53.62-97.84,0-10.84,0-39.65,18.54-66.18,9.7-14,32.8-39.08,77-39.08,38.51,0,58.76,19.11,67.89,31.95,6.56,9.69,18,36.2,13.7,46.85l-36.19-4.26a63.78,63.78,0,0,0-6-18.63c-7.7-14.27-22.82-21.68-38.8-21.4a51.57,51.57,0,0,0-23.39,5.42c-14.83,7.42-31.94,26.82-31.94,64.47,0,5.7.28,29.67,12,47.64a52.76,52.76,0,0,0,43.92,24c15.69,0,27.39-6.28,37.09-18.26a88.06,88.06,0,0,0,8-12.27,97.67,97.67,0,0,0,3.71-10l38,5C1667.82,596.67,1659.29,612,1652.44,620.79Z" transform="translate(-156 -436.98)"/><path class="cls-1" d="M1841.19,634.2c-24.25,20.54-56.76,20.82-65.89,20.82-12,0-50.49-.57-78.45-29.95-12-13.5-17.95-36.61-20.51-41.17l42.48,6.09c8.84,13.12,25.39,30.23,62.47,30.23a70.18,70.18,0,0,0,14.83-1.42c4.28-.86,24-6.28,24-25.11a20.47,20.47,0,0,0-3.71-12c-6.84-9.12-25.1-11.69-35.08-14l-24-5.42c-10.27-2.29-21.4-4.57-30.53-9.42-9.41-4.85-28.81-17.68-28.81-46.78,0-4.56.58-17.68,7.71-29.66,9.12-15.41,31.09-33.09,71.88-33.09,18,0,53.34,2.85,81.3,40.79l-31.1,23.1c-6.27-10-20.54-29.95-52.2-29.95-2,0-27.38-.28-35.65,15.41a18,18,0,0,0-2.29,9.12,17,17,0,0,0,2.57,9.13c4.85,8.27,16,10.84,34.52,14.84l20.82,4.56c19.11,4.28,40.22,10,53.63,25.67,5.7,6.28,11.69,15.41,11.69,34C1860.87,608.24,1855.17,622.22,1841.19,634.2Z" transform="translate(-156 -436.98)"/><path class="cls-1" d="M322,620.79c-9.41,12-31.37,34.23-71.88,34.23a97.88,97.88,0,0,1-40.5-8.55C186.81,635.63,156,608.24,156,548.63c0-10.84,0-39.65,18.54-66.18,9.7-14,32.8-39.08,77-39.08,38.51,0,58.76,19.11,67.89,31.95,6.56,9.69,17.95,36.2,13.69,46.85L297,517.91a63.47,63.47,0,0,0-6-18.63c-7.7-14.27-22.82-21.68-38.79-21.4a51.53,51.53,0,0,0-23.39,5.42c-14.84,7.42-32,26.82-32,64.47,0,5.7.29,29.67,12,47.64a52.8,52.8,0,0,0,43.93,24c15.69,0,27.38-6.28,37.08-18.26a88.43,88.43,0,0,0,8-12.27,102.79,102.79,0,0,0,3.71-10l38,5C337.4,596.67,328.86,612,322,620.79Z" transform="translate(-156 -436.98)"/><path class="cls-1" d="M357.16,649.89V448.5H395.1V615.66l97.69.17v34.06Z" transform="translate(-156 -436.98)"/><path class="cls-1" d="M651.53,608.81C645,629.07,621.87,655,572.52,655c-23.68,0-47.36-5.7-63.9-24a58.55,58.55,0,0,1-12.84-21.68c-3.13-10.27-3.13-19.68-3.13-41.07V448.5h37.94V572.3c0,12,0,16.26,2,22.25,3.71,12,14.55,24,41.36,24,4.85,0,32.52,0,40.79-22.82,2.29-6.56,2.57-12,2.57-25.39V448.5H655V564.6C655,587.7,655.24,597.4,651.53,608.81Z" transform="translate(-156 -436.98)"/><path class="cls-1" d="M825.81,634.2C801.56,654.74,769.05,655,759.92,655c-12,0-50.49-.57-78.45-29.95-12-13.5-18-36.61-20.51-41.17L703.44,590c8.84,13.12,25.38,30.23,62.47,30.23a70.18,70.18,0,0,0,14.83-1.42c4.28-.86,24-6.28,24-25.11a20.47,20.47,0,0,0-3.71-12c-6.84-9.12-25.1-11.69-35.08-14l-24-5.42c-10.27-2.29-21.4-4.57-30.53-9.42-9.41-4.85-28.81-17.68-28.81-46.78,0-4.56.58-17.68,7.71-29.66,9.12-15.41,31.09-33.09,71.88-33.09,18,0,53.34,2.85,81.3,40.79l-31.1,23.1c-6.27-10-20.54-29.95-52.2-29.95-2,0-27.38-.28-35.65,15.41a18,18,0,0,0-2.29,9.12,17,17,0,0,0,2.57,9.13c4.85,8.27,16,10.84,34.52,14.84l20.82,4.56c19.11,4.28,40.22,10,53.63,25.67,5.7,6.28,11.69,15.41,11.69,34C845.49,608.24,839.79,622.22,825.81,634.2Z" transform="translate(-156 -436.98)"/><path class="cls-1" d="M941.62,482.45V649.89H904V482.45L844,481.72V447.66h163.91v34.06Z" transform="translate(-156 -436.98)"/><path class="cls-1" d="M1161.8,622c-4.56,4.85-16.25,16.54-34.23,23.1-6.27,2.28-18,5.71-35.08,5.71-28.53,0-50.2-9.42-69-31.1-18.83-21.39-26.82-46.49-26.82-74.45a124,124,0,0,1,6-39.08c13.13-40.22,47.64-67,90.71-67,38.8,0,61.9,21.11,71.32,31.95,10.55,12,25.38,35.37,25.1,73.88C1189.76,557.49,1188.33,593.15,1161.8,622Z" transform="translate(-156 -436.98)"/><path class="cls-1" d="M1358.36,649.89l3.71-165.45-43.65,165.45h-33.94l-43.65-165.45,3.71,165.45h-36.79V448.5h54.76L1301.88,598l38.79-149.47h54.48V649.89Z" transform="translate(-156 -436.98)"/><path class="cls-1" d="M1420.9,649.89V445.54h46.83V649.89Z" transform="translate(-156 -436.98)"/><path class="cls-1" d="M1652.44,620.79c-9.41,12-31.38,34.23-71.88,34.23a97.89,97.89,0,0,1-40.51-8.55c-22.82-10.84-53.62-38.23-53.62-97.84,0-10.84,0-39.65,18.54-66.18,9.7-14,32.8-39.08,77-39.08,38.51,0,58.76,19.11,67.89,31.95,6.56,9.69,18,36.2,13.7,46.85l-36.19-4.26a63.78,63.78,0,0,0-6-18.63c-7.7-14.27-22.82-21.68-38.8-21.4a51.57,51.57,0,0,0-23.39,5.42c-14.83,7.42-31.94,26.82-31.94,64.47,0,5.7.28,29.67,12,47.64a52.76,52.76,0,0,0,43.92,24c15.69,0,27.39-6.28,37.09-18.26a88.06,88.06,0,0,0,8-12.27,97.67,97.67,0,0,0,3.71-10l38,5C1667.82,596.67,1659.29,612,1652.44,620.79Z" transform="translate(-156 -436.98)"/><path class="cls-1" d="M1841.19,634.2c-24.25,20.54-56.76,20.82-65.89,20.82-12,0-50.49-.57-78.45-29.95-12-13.5-17.95-36.61-20.51-41.17l42.48,6.09c8.84,13.12,25.39,30.23,62.47,30.23a70.18,70.18,0,0,0,14.83-1.42c4.28-.86,24-6.28,24-25.11a20.47,20.47,0,0,0-3.71-12c-6.84-9.12-25.1-11.69-35.08-14l-24-5.42c-10.27-2.29-21.4-4.57-30.53-9.42-9.41-4.85-28.81-17.68-28.81-46.78,0-4.56.58-17.68,7.71-29.66,9.12-15.41,31.09-33.09,71.88-33.09,18,0,53.34,2.85,81.3,40.79l-31.1,23.1c-6.27-10-20.54-29.95-52.2-29.95-2,0-27.38-.28-35.65,15.41a18,18,0,0,0-2.29,9.12,17,17,0,0,0,2.57,9.13c4.85,8.27,16,10.84,34.52,14.84l20.82,4.56c19.11,4.28,40.22,10,53.63,25.67,5.7,6.28,11.69,15.41,11.69,34C1860.87,608.24,1855.17,622.22,1841.19,634.2Z" transform="translate(-156 -436.98)"/><path class="cls-1" d="M322,620.79c-9.41,12-31.37,34.23-71.88,34.23a97.88,97.88,0,0,1-40.5-8.55C186.81,635.63,156,608.24,156,548.63c0-10.84,0-39.65,18.54-66.18,9.7-14,32.8-39.08,77-39.08,38.51,0,58.76,19.11,67.89,31.95,6.56,9.69,17.95,36.2,13.69,46.85L297,517.91a63.47,63.47,0,0,0-6-18.63c-7.7-14.27-22.82-21.68-38.79-21.4a51.53,51.53,0,0,0-23.39,5.42c-14.84,7.42-32,26.82-32,64.47,0,5.7.29,29.67,12,47.64a52.8,52.8,0,0,0,43.93,24c15.69,0,27.38-6.28,37.08-18.26a88.43,88.43,0,0,0,8-12.27,102.79,102.79,0,0,0,3.71-10l38,5C337.4,596.67,328.86,612,322,620.79Z" transform="translate(-156 -436.98)"/><path class="cls-1" d="M357.16,649.89V448.5H395.1V615.66l97.69.17v34.06Z" transform="translate(-156 -436.98)"/><path class="cls-1" d="M651.53,608.81C645,629.07,621.87,655,572.52,655c-23.68,0-47.36-5.7-63.9-24a58.55,58.55,0,0,1-12.84-21.68c-3.13-10.27-3.13-19.68-3.13-41.07V448.5h37.94V572.3c0,12,0,16.26,2,22.25,3.71,12,14.55,24,41.36,24,4.85,0,32.52,0,40.79-22.82,2.29-6.56,2.57-12,2.57-25.39V448.5H655V564.6C655,587.7,655.24,597.4,651.53,608.81Z" transform="translate(-156 -436.98)"/><path class="cls-1" d="M825.81,634.2C801.56,654.74,769.05,655,759.92,655c-12,0-50.49-.57-78.45-29.95-12-13.5-18-36.61-20.51-41.17L703.44,590c8.84,13.12,25.38,30.23,62.47,30.23a70.18,70.18,0,0,0,14.83-1.42c4.28-.86,24-6.28,24-25.11a20.47,20.47,0,0,0-3.71-12c-6.84-9.12-25.1-11.69-35.08-14l-24-5.42c-10.27-2.29-21.4-4.57-30.53-9.42-9.41-4.85-28.81-17.68-28.81-46.78,0-4.56.58-17.68,7.71-29.66,9.12-15.41,31.09-33.09,71.88-33.09,18,0,53.34,2.85,81.3,40.79l-31.1,23.1c-6.27-10-20.54-29.95-52.2-29.95-2,0-27.38-.28-35.65,15.41a18,18,0,0,0-2.29,9.12,17,17,0,0,0,2.57,9.13c4.85,8.27,16,10.84,34.52,14.84l20.82,4.56c19.11,4.28,40.22,10,53.63,25.67,5.7,6.28,11.69,15.41,11.69,34C845.49,608.24,839.79,622.22,825.81,634.2Z" transform="translate(-156 -436.98)"/><path class="cls-1" d="M941.62,482.45V649.89H904V482.45L844,481.72V447.66h163.91v34.06Z" transform="translate(-156 -436.98)"/><path class="cls-1" d="M1161.8,622c-4.56,4.85-16.25,16.54-34.23,23.1-6.27,2.28-18,5.71-35.08,5.71-28.53,0-50.2-9.42-69-31.1-18.83-21.39-26.82-46.49-26.82-74.45a124,124,0,0,1,6-39.08c13.13-40.22,47.64-67,90.71-67,38.8,0,61.9,21.11,71.32,31.95,10.55,12,25.38,35.37,25.1,73.88C1189.76,557.49,1188.33,593.15,1161.8,622Z" transform="translate(-156 -436.98)"/><path class="cls-1" d="M1358.36,649.89l3.71-165.45-43.65,165.45h-33.94l-43.65-165.45,3.71,165.45h-36.79V448.5h54.76L1301.88,598l38.79-149.47h54.48V649.89Z" transform="translate(-156 -436.98)"/><path class="cls-1" d="M1420.9,649.89V445.54h46.83V649.89Z" transform="translate(-156 -436.98)"/><path class="cls-1" d="M1652.44,620.79c-9.41,12-31.38,34.23-71.88,34.23a97.89,97.89,0,0,1-40.51-8.55c-22.82-10.84-53.62-38.23-53.62-97.84,0-10.84,0-39.65,18.54-66.18,9.7-14,32.8-39.08,77-39.08,38.51,0,58.76,19.11,67.89,31.95,6.56,9.69,18,36.2,13.7,46.85l-36.19-4.26a63.78,63.78,0,0,0-6-18.63c-7.7-14.27-22.82-21.68-38.8-21.4a51.57,51.57,0,0,0-23.39,5.42c-14.83,7.42-31.94,26.82-31.94,64.47,0,5.7.28,29.67,12,47.64a52.76,52.76,0,0,0,43.92,24c15.69,0,27.39-6.28,37.09-18.26a88.06,88.06,0,0,0,8-12.27,97.67,97.67,0,0,0,3.71-10l38,5C1667.82,596.67,1659.29,612,1652.44,620.79Z" transform="translate(-156 -436.98)"/><path class="cls-1" d="M1841.19,634.2c-24.25,20.54-56.76,20.82-65.89,20.82-12,0-50.49-.57-78.45-29.95-12-13.5-17.95-36.61-20.51-41.17l42.48,6.09c8.84,13.12,25.39,30.23,62.47,30.23a70.18,70.18,0,0,0,14.83-1.42c4.28-.86,24-6.28,24-25.11a20.47,20.47,0,0,0-3.71-12c-6.84-9.12-25.1-11.69-35.08-14l-24-5.42c-10.27-2.29-21.4-4.57-30.53-9.42-9.41-4.85-28.81-17.68-28.81-46.78,0-4.56.58-17.68,7.71-29.66,9.12-15.41,31.09-33.09,71.88-33.09,18,0,53.34,2.85,81.3,40.79l-31.1,23.1c-6.27-10-20.54-29.95-52.2-29.95-2,0-27.38-.28-35.65,15.41a18,18,0,0,0-2.29,9.12,17,17,0,0,0,2.57,9.13c4.85,8.27,16,10.84,34.52,14.84l20.82,4.56c19.11,4.28,40.22,10,53.63,25.67,5.7,6.28,11.69,15.41,11.69,34C1860.87,608.24,1855.17,622.22,1841.19,634.2Z" transform="translate(-156 -436.98)"/><path class="cls-1" d="M322,620.79c-9.41,12-31.37,34.23-71.88,34.23a97.88,97.88,0,0,1-40.5-8.55C186.81,635.63,156,608.24,156,548.63c0-10.84,0-39.65,18.54-66.18,9.7-14,32.8-39.08,77-39.08,38.51,0,58.76,19.11,67.89,31.95,6.56,9.69,17.95,36.2,13.69,46.85L297,517.91a63.47,63.47,0,0,0-6-18.63c-7.7-14.27-22.82-21.68-38.79-21.4a51.53,51.53,0,0,0-23.39,5.42c-14.84,7.42-32,26.82-32,64.47,0,5.7.29,29.67,12,47.64a52.8,52.8,0,0,0,43.93,24c15.69,0,27.38-6.28,37.08-18.26a88.43,88.43,0,0,0,8-12.27,102.79,102.79,0,0,0,3.71-10l38,5C337.4,596.67,328.86,612,322,620.79Z" transform="translate(-156 -436.98)"/><path class="cls-1" d="M359.29,647.76V446.37h37.93V613.53l97.7.17v34.06Z" transform="translate(-156 -436.98)"/><path class="cls-1" d="M653.66,606.68c-6.56,20.26-29.67,46.21-79,46.21-23.68,0-47.36-5.7-63.9-24a58.55,58.55,0,0,1-12.84-21.68c-3.14-10.26-3.14-19.68-3.14-41.07V446.37h37.94v123.8c0,12,0,16.26,2,22.25,3.71,12,14.55,24,41.36,24,4.85,0,32.52,0,40.79-22.82,2.28-6.56,2.57-12,2.57-25.38V446.37h37.65v116.1C657.08,585.58,657.37,595.27,653.66,606.68Z" transform="translate(-156 -436.98)"/><path class="cls-1" d="M827.94,632.07c-24.25,20.54-56.77,20.82-65.89,20.82-12,0-50.49-.57-78.45-29.95-12-13.5-18-36.6-20.51-41.17l42.48,6.09C714.41,601,731,618.09,768,618.09a70.18,70.18,0,0,0,14.83-1.42c4.28-.86,24-6.28,24-25.1a20.55,20.55,0,0,0-3.71-12c-6.84-9.12-25.1-11.69-35.08-14l-24-5.42c-10.26-2.28-21.39-4.57-30.52-9.42-9.41-4.84-28.81-17.68-28.81-46.78,0-4.56.57-17.68,7.7-29.66,9.13-15.41,31.1-33.09,71.89-33.09,18,0,53.34,2.85,81.29,40.79l-31.09,23.11c-6.27-10-20.54-30-52.2-30-2,0-27.38-.28-35.65,15.41a18,18,0,0,0-2.29,9.13,17,17,0,0,0,2.57,9.12c4.85,8.28,16,10.84,34.51,14.84l20.83,4.56c19.11,4.28,40.22,10,53.62,25.67,5.71,6.28,11.7,15.41,11.7,34C847.62,606.11,841.92,620.09,827.94,632.07Z" transform="translate(-156 -436.98)"/><path class="cls-1" d="M943.74,480.32V647.76H906.09V480.32l-59.94-.73v-34h163.91v34Z" transform="translate(-156 -436.98)"/><path class="cls-1" d="M1163.93,619.83c-4.56,4.85-16.26,16.54-34.23,23.1-6.27,2.29-18,5.71-35.08,5.71-28.53,0-50.21-9.42-69-31.1-18.83-21.39-26.82-46.49-26.82-74.45a124,124,0,0,1,6-39.07c13.12-40.22,47.64-67,90.71-67,38.8,0,61.9,21.11,71.31,31.95,10.56,12,25.39,35.37,25.11,73.88C1191.89,555.36,1190.46,591,1163.93,619.83Z" transform="translate(-156 -436.98)"/><path class="cls-1" d="M1360.49,647.76l3.7-165.44-43.64,165.44h-33.94L1243,482.32l3.71,165.44h-36.79V446.37h54.76L1304,595.84l38.79-149.47h54.48V647.76Z" transform="translate(-156 -436.98)"/><path class="cls-1" d="M1423,647.76V443.41h46.84V647.76Z" transform="translate(-156 -436.98)"/><path class="cls-1" d="M1654.57,618.67c-9.41,12-31.38,34.22-71.88,34.22a97.89,97.89,0,0,1-40.51-8.55c-22.82-10.84-53.63-38.23-53.63-97.84,0-10.84,0-39.65,18.54-66.18,9.7-14,32.81-39.08,77-39.08,38.51,0,58.76,19.11,67.89,31.95,6.56,9.7,18,36.21,13.69,46.85l-36.18-4.26a64.1,64.1,0,0,0-6-18.63c-7.7-14.26-22.82-21.68-38.8-21.4a51.57,51.57,0,0,0-23.39,5.42c-14.83,7.42-32,26.82-32,64.47,0,5.71.29,29.67,12,47.64a52.76,52.76,0,0,0,43.92,24c15.69,0,27.39-6.28,37.09-18.26a88.76,88.76,0,0,0,8-12.26,101.58,101.58,0,0,0,3.71-10l38,5C1670,594.54,1661.42,609.82,1654.57,618.67Z" transform="translate(-156 -436.98)"/><path class="cls-1" d="M1843.32,632.07c-24.25,20.54-56.77,20.82-65.89,20.82-12,0-50.49-.57-78.45-29.95-12-13.5-18-36.6-20.51-41.17l42.48,6.09c8.84,13.12,25.38,30.23,62.47,30.23a70.18,70.18,0,0,0,14.83-1.42c4.28-.86,24-6.28,24-25.1a20.48,20.48,0,0,0-3.71-12c-6.84-9.12-25.1-11.69-35.08-14l-24-5.42c-10.27-2.28-21.4-4.57-30.53-9.42-9.41-4.84-28.81-17.68-28.81-46.78,0-4.56.57-17.68,7.7-29.66,9.13-15.41,31.1-33.09,71.89-33.09,18,0,53.34,2.85,81.29,40.79l-31.09,23.11c-6.27-10-20.54-30-52.2-30-2,0-27.38-.28-35.65,15.41a18,18,0,0,0-2.29,9.13,17,17,0,0,0,2.57,9.12c4.85,8.28,16,10.84,34.51,14.84l20.83,4.56c19.11,4.28,40.22,10,53.62,25.67,5.71,6.28,11.7,15.41,11.7,34C1863,606.11,1857.3,620.09,1843.32,632.07Z" transform="translate(-156 -436.98)"/><path class="cls-1" d="M324.14,618.67c-9.41,12-31.37,34.22-71.88,34.22a97.85,97.85,0,0,1-40.5-8.55c-22.82-10.84-53.63-38.23-53.63-97.84,0-10.84,0-39.65,18.54-66.18,9.7-14,32.8-39.08,77-39.08,38.51,0,58.76,19.11,67.89,31.95,6.56,9.7,17.95,36.21,13.69,46.85l-36.19-4.26a63.78,63.78,0,0,0-6-18.63c-7.7-14.26-22.82-21.68-38.79-21.4a51.53,51.53,0,0,0-23.39,5.42c-14.84,7.42-32,26.82-32,64.47,0,5.71.29,29.67,12,47.64a52.8,52.8,0,0,0,43.93,24c15.69,0,27.38-6.28,37.08-18.26a90.14,90.14,0,0,0,8-12.26,104.28,104.28,0,0,0,3.71-10l38,5C339.53,594.54,331,609.82,324.14,618.67Z" transform="translate(-156 -436.98)"/><path class="cls-1" d="M357.16,649.89V448.5H395.1V615.66l97.69.17v34.06Z" transform="translate(-156 -436.98)"/><path class="cls-1" d="M651.53,608.81C645,629.07,621.87,655,572.52,655c-23.68,0-47.36-5.7-63.9-24a58.55,58.55,0,0,1-12.84-21.68c-3.13-10.27-3.13-19.68-3.13-41.07V448.5h37.94V572.3c0,12,0,16.26,2,22.25,3.71,12,14.55,24,41.36,24,4.85,0,32.52,0,40.79-22.82,2.29-6.56,2.57-12,2.57-25.39V448.5H655V564.6C655,587.7,655.24,597.4,651.53,608.81Z" transform="translate(-156 -436.98)"/><path class="cls-1" d="M825.81,634.2C801.56,654.74,769.05,655,759.92,655c-12,0-50.49-.57-78.45-29.95-12-13.5-18-36.61-20.51-41.17L703.44,590c8.84,13.12,25.38,30.23,62.47,30.23a70.18,70.18,0,0,0,14.83-1.42c4.28-.86,24-6.28,24-25.11a20.47,20.47,0,0,0-3.71-12c-6.84-9.12-25.1-11.69-35.08-14l-24-5.42c-10.27-2.29-21.4-4.57-30.53-9.42-9.41-4.85-28.81-17.68-28.81-46.78,0-4.56.58-17.68,7.71-29.66,9.12-15.41,31.09-33.09,71.88-33.09,18,0,53.34,2.85,81.3,40.79l-31.1,23.1c-6.27-10-20.54-29.95-52.2-29.95-2,0-27.38-.28-35.65,15.41a18,18,0,0,0-2.29,9.12,17,17,0,0,0,2.57,9.13c4.85,8.27,16,10.84,34.52,14.84l20.82,4.56c19.11,4.28,40.22,10,53.63,25.67,5.7,6.28,11.69,15.41,11.69,34C845.49,608.24,839.79,622.22,825.81,634.2Z" transform="translate(-156 -436.98)"/><path class="cls-1" d="M941.62,482.45V649.89H904V482.45L844,481.72V447.66h163.91v34.06Z" transform="translate(-156 -436.98)"/><path class="cls-1" d="M1161.8,622c-4.56,4.85-16.25,16.54-34.23,23.1-6.27,2.28-18,5.71-35.08,5.71-28.53,0-50.2-9.42-69-31.1-18.83-21.39-26.82-46.49-26.82-74.45a124,124,0,0,1,6-39.08c13.13-40.22,47.64-67,90.71-67,38.8,0,61.9,21.11,71.32,31.95,10.55,12,25.38,35.37,25.1,73.88C1189.76,557.49,1188.33,593.15,1161.8,622Z" transform="translate(-156 -436.98)"/><path class="cls-1" d="M1358.36,649.89l3.71-165.45-43.65,165.45h-33.94l-43.65-165.45,3.71,165.45h-36.79V448.5h54.76L1301.88,598l38.79-149.47h54.48V649.89Z" transform="translate(-156 -436.98)"/><path class="cls-1" d="M1420.9,649.89V445.54h46.83V649.89Z" transform="translate(-156 -436.98)"/><path class="cls-1" d="M1652.44,620.79c-9.41,12-31.38,34.23-71.88,34.23a97.89,97.89,0,0,1-40.51-8.55c-22.82-10.84-53.62-38.23-53.62-97.84,0-10.84,0-39.65,18.54-66.18,9.7-14,32.8-39.08,77-39.08,38.51,0,58.76,19.11,67.89,31.95,6.56,9.69,18,36.2,13.7,46.85l-36.19-4.26a63.78,63.78,0,0,0-6-18.63c-7.7-14.27-22.82-21.68-38.8-21.4a51.57,51.57,0,0,0-23.39,5.42c-14.83,7.42-31.94,26.82-31.94,64.47,0,5.7.28,29.67,12,47.64a52.76,52.76,0,0,0,43.92,24c15.69,0,27.39-6.28,37.09-18.26a88.06,88.06,0,0,0,8-12.27,97.67,97.67,0,0,0,3.71-10l38,5C1667.82,596.67,1659.29,612,1652.44,620.79Z" transform="translate(-156 -436.98)"/><path class="cls-1" d="M1841.19,634.2c-24.25,20.54-56.76,20.82-65.89,20.82-12,0-50.49-.57-78.45-29.95-12-13.5-17.95-36.61-20.51-41.17l42.48,6.09c8.84,13.12,25.39,30.23,62.47,30.23a70.18,70.18,0,0,0,14.83-1.42c4.28-.86,24-6.28,24-25.11a20.47,20.47,0,0,0-3.71-12c-6.84-9.12-25.1-11.69-35.08-14l-24-5.42c-10.27-2.29-21.4-4.57-30.53-9.42-9.41-4.85-28.81-17.68-28.81-46.78,0-4.56.58-17.68,7.71-29.66,9.12-15.41,31.09-33.09,71.88-33.09,18,0,53.34,2.85,81.3,40.79l-31.1,23.1c-6.27-10-20.54-29.95-52.2-29.95-2,0-27.38-.28-35.65,15.41a18,18,0,0,0-2.29,9.12,17,17,0,0,0,2.57,9.13c4.85,8.27,16,10.84,34.52,14.84l20.82,4.56c19.11,4.28,40.22,10,53.63,25.67,5.7,6.28,11.69,15.41,11.69,34C1860.87,608.24,1855.17,622.22,1841.19,634.2Z" transform="translate(-156 -436.98)"/><path class="cls-1" d="M322,620.79c-9.41,12-31.37,34.23-71.88,34.23a97.88,97.88,0,0,1-40.5-8.55C186.81,635.63,156,608.24,156,548.63c0-10.84,0-39.65,18.54-66.18,9.7-14,32.8-39.08,77-39.08,38.51,0,58.76,19.11,67.89,31.95,6.56,9.69,17.95,36.2,13.69,46.85L297,517.91a63.47,63.47,0,0,0-6-18.63c-7.7-14.27-22.82-21.68-38.79-21.4a51.53,51.53,0,0,0-23.39,5.42c-14.84,7.42-32,26.82-32,64.47,0,5.7.29,29.67,12,47.64a52.8,52.8,0,0,0,43.93,24c15.69,0,27.38-6.28,37.08-18.26a88.43,88.43,0,0,0,8-12.27,102.79,102.79,0,0,0,3.71-10l38,5C337.4,596.67,328.86,612,322,620.79Z" transform="translate(-156 -436.98)"/><path class="cls-1" d="M357.16,649.89V448.5H395.1V615.66l97.69.17v34.06Z" transform="translate(-156 -436.98)"/><path class="cls-1" d="M651.53,608.81C645,629.07,621.87,655,572.52,655c-23.68,0-47.36-5.7-63.9-24a58.55,58.55,0,0,1-12.84-21.68c-3.13-10.27-3.13-19.68-3.13-41.07V448.5h37.94V572.3c0,12,0,16.26,2,22.25,3.71,12,14.55,24,41.36,24,4.85,0,32.52,0,40.79-22.82,2.29-6.56,2.57-12,2.57-25.39V448.5H655V564.6C655,587.7,655.24,597.4,651.53,608.81Z" transform="translate(-156 -436.98)"/><path class="cls-1" d="M825.81,634.2C801.56,654.74,769.05,655,759.92,655c-12,0-50.49-.57-78.45-29.95-12-13.5-18-36.61-20.51-41.17L703.44,590c8.84,13.12,25.38,30.23,62.47,30.23a70.18,70.18,0,0,0,14.83-1.42c4.28-.86,24-6.28,24-25.11a20.47,20.47,0,0,0-3.71-12c-6.84-9.12-25.1-11.69-35.08-14l-24-5.42c-10.27-2.29-21.4-4.57-30.53-9.42-9.41-4.85-28.81-17.68-28.81-46.78,0-4.56.58-17.68,7.71-29.66,9.12-15.41,31.09-33.09,71.88-33.09,18,0,53.34,2.85,81.3,40.79l-31.1,23.1c-6.27-10-20.54-29.95-52.2-29.95-2,0-27.38-.28-35.65,15.41a18,18,0,0,0-2.29,9.12,17,17,0,0,0,2.57,9.13c4.85,8.27,16,10.84,34.52,14.84l20.82,4.56c19.11,4.28,40.22,10,53.63,25.67,5.7,6.28,11.69,15.41,11.69,34C845.49,608.24,839.79,622.22,825.81,634.2Z" transform="translate(-156 -436.98)"/><path class="cls-1" d="M941.62,482.45V649.89H904V482.45L844,481.72V447.66h163.91v34.06Z" transform="translate(-156 -436.98)"/><path class="cls-1" d="M1161.8,622c-4.56,4.85-16.25,16.54-34.23,23.1-6.27,2.28-18,5.71-35.08,5.71-28.53,0-50.2-9.42-69-31.1-18.83-21.39-26.82-46.49-26.82-74.45a124,124,0,0,1,6-39.08c13.13-40.22,47.64-67,90.71-67,38.8,0,61.9,21.11,71.32,31.95,10.55,12,25.38,35.37,25.1,73.88C1189.76,557.49,1188.33,593.15,1161.8,622Z" transform="translate(-156 -436.98)"/><path class="cls-1" d="M1358.36,649.89l3.71-165.45-43.65,165.45h-33.94l-43.65-165.45,3.71,165.45h-36.79V448.5h54.76L1301.88,598l38.79-149.47h54.48V649.89Z" transform="translate(-156 -436.98)"/><path class="cls-1" d="M1420.9,649.89V445.54h46.83V649.89Z" transform="translate(-156 -436.98)"/><path class="cls-1" d="M1652.44,620.79c-9.41,12-31.38,34.23-71.88,34.23a97.89,97.89,0,0,1-40.51-8.55c-22.82-10.84-53.62-38.23-53.62-97.84,0-10.84,0-39.65,18.54-66.18,9.7-14,32.8-39.08,77-39.08,38.51,0,58.76,19.11,67.89,31.95,6.56,9.69,18,36.2,13.7,46.85l-36.19-4.26a63.78,63.78,0,0,0-6-18.63c-7.7-14.27-22.82-21.68-38.8-21.4a51.57,51.57,0,0,0-23.39,5.42c-14.83,7.42-31.94,26.82-31.94,64.47,0,5.7.28,29.67,12,47.64a52.76,52.76,0,0,0,43.92,24c15.69,0,27.39-6.28,37.09-18.26a88.06,88.06,0,0,0,8-12.27,97.67,97.67,0,0,0,3.71-10l38,5C1667.82,596.67,1659.29,612,1652.44,620.79Z" transform="translate(-156 -436.98)"/><path class="cls-1" d="M1841.19,634.2c-24.25,20.54-56.76,20.82-65.89,20.82-12,0-50.49-.57-78.45-29.95-12-13.5-17.95-36.61-20.51-41.17l42.48,6.09c8.84,13.12,25.39,30.23,62.47,30.23a70.18,70.18,0,0,0,14.83-1.42c4.28-.86,24-6.28,24-25.11a20.47,20.47,0,0,0-3.71-12c-6.84-9.12-25.1-11.69-35.08-14l-24-5.42c-10.27-2.29-21.4-4.57-30.53-9.42-9.41-4.85-28.81-17.68-28.81-46.78,0-4.56.58-17.68,7.71-29.66,9.12-15.41,31.09-33.09,71.88-33.09,18,0,53.34,2.85,81.3,40.79l-31.1,23.1c-6.27-10-20.54-29.95-52.2-29.95-2,0-27.38-.28-35.65,15.41a18,18,0,0,0-2.29,9.12,17,17,0,0,0,2.57,9.13c4.85,8.27,16,10.84,34.52,14.84l20.82,4.56c19.11,4.28,40.22,10,53.63,25.67,5.7,6.28,11.69,15.41,11.69,34C1860.87,608.24,1855.17,622.22,1841.19,634.2Z" transform="translate(-156 -436.98)"/><path class="cls-1" d="M322,620.79c-9.41,12-31.37,34.23-71.88,34.23a97.88,97.88,0,0,1-40.5-8.55C186.81,635.63,156,608.24,156,548.63c0-10.84,0-39.65,18.54-66.18,9.7-14,32.8-39.08,77-39.08,38.51,0,58.76,19.11,67.89,31.95,6.56,9.69,17.95,36.2,13.69,46.85L297,517.91a63.47,63.47,0,0,0-6-18.63c-7.7-14.27-22.82-21.68-38.79-21.4a51.53,51.53,0,0,0-23.39,5.42c-14.84,7.42-32,26.82-32,64.47,0,5.7.29,29.67,12,47.64a52.8,52.8,0,0,0,43.93,24c15.69,0,27.38-6.28,37.08-18.26a88.43,88.43,0,0,0,8-12.27,102.79,102.79,0,0,0,3.71-10l38,5C337.4,596.67,328.86,612,322,620.79Z" transform="translate(-156 -436.98)"/><path class="cls-1" d="M357.16,649.89V448.5H395.1V615.66l97.69.17v34.06Z" transform="translate(-156 -436.98)"/><path class="cls-1" d="M651.53,608.81C645,629.07,621.87,655,572.52,655c-23.68,0-47.36-5.7-63.9-24a58.55,58.55,0,0,1-12.84-21.68c-3.13-10.27-3.13-19.68-3.13-41.07V448.5h37.94V572.3c0,12,0,16.26,2,22.25,3.71,12,14.55,24,41.36,24,4.85,0,32.52,0,40.79-22.82,2.29-6.56,2.57-12,2.57-25.39V448.5H655V564.6C655,587.7,655.24,597.4,651.53,608.81Z" transform="translate(-156 -436.98)"/><path class="cls-1" d="M825.81,634.2C801.56,654.74,769.05,655,759.92,655c-12,0-50.49-.57-78.45-29.95-12-13.5-18-36.61-20.51-41.17L703.44,590c8.84,13.12,25.38,30.23,62.47,30.23a70.18,70.18,0,0,0,14.83-1.42c4.28-.86,24-6.28,24-25.11a20.47,20.47,0,0,0-3.71-12c-6.84-9.12-25.1-11.69-35.08-14l-24-5.42c-10.27-2.29-21.4-4.57-30.53-9.42-9.41-4.85-28.81-17.68-28.81-46.78,0-4.56.58-17.68,7.71-29.66,9.12-15.41,31.09-33.09,71.88-33.09,18,0,53.34,2.85,81.3,40.79l-31.1,23.1c-6.27-10-20.54-29.95-52.2-29.95-2,0-27.38-.28-35.65,15.41a18,18,0,0,0-2.29,9.12,17,17,0,0,0,2.57,9.13c4.85,8.27,16,10.84,34.52,14.84l20.82,4.56c19.11,4.28,40.22,10,53.63,25.67,5.7,6.28,11.69,15.41,11.69,34C845.49,608.24,839.79,622.22,825.81,634.2Z" transform="translate(-156 -436.98)"/><path class="cls-1" d="M941.62,482.45V649.89H904V482.45L844,481.72V447.66h163.91v34.06Z" transform="translate(-156 -436.98)"/><path class="cls-1" d="M1161.8,622c-4.56,4.85-16.25,16.54-34.23,23.1-6.27,2.28-18,5.71-35.08,5.71-28.53,0-50.2-9.42-69-31.1-18.83-21.39-26.82-46.49-26.82-74.45a124,124,0,0,1,6-39.08c13.13-40.22,47.64-67,90.71-67,38.8,0,61.9,21.11,71.32,31.95,10.55,12,25.38,35.37,25.1,73.88C1189.76,557.49,1188.33,593.15,1161.8,622Z" transform="translate(-156 -436.98)"/><path class="cls-1" d="M1358.36,649.89l3.71-165.45-43.65,165.45h-33.94l-43.65-165.45,3.71,165.45h-36.79V448.5h54.76L1301.88,598l38.79-149.47h54.48V649.89Z" transform="translate(-156 -436.98)"/><path class="cls-1" d="M1420.9,649.89V445.54h46.83V649.89Z" transform="translate(-156 -436.98)"/><path class="cls-1" d="M1652.44,620.79c-9.41,12-31.38,34.23-71.88,34.23a97.89,97.89,0,0,1-40.51-8.55c-22.82-10.84-53.62-38.23-53.62-97.84,0-10.84,0-39.65,18.54-66.18,9.7-14,32.8-39.08,77-39.08,38.51,0,58.76,19.11,67.89,31.95,6.56,9.69,18,36.2,13.7,46.85l-36.19-4.26a63.78,63.78,0,0,0-6-18.63c-7.7-14.27-22.82-21.68-38.8-21.4a51.57,51.57,0,0,0-23.39,5.42c-14.83,7.42-31.94,26.82-31.94,64.47,0,5.7.28,29.67,12,47.64a52.76,52.76,0,0,0,43.92,24c15.69,0,27.39-6.28,37.09-18.26a88.06,88.06,0,0,0,8-12.27,97.67,97.67,0,0,0,3.71-10l38,5C1667.82,596.67,1659.29,612,1652.44,620.79Z" transform="translate(-156 -436.98)"/><path class="cls-1" d="M1841.19,634.2c-24.25,20.54-56.76,20.82-65.89,20.82-12,0-50.49-.57-78.45-29.95-12-13.5-17.95-36.61-20.51-41.17l42.48,6.09c8.84,13.12,25.39,30.23,62.47,30.23a70.18,70.18,0,0,0,14.83-1.42c4.28-.86,24-6.28,24-25.11a20.47,20.47,0,0,0-3.71-12c-6.84-9.12-25.1-11.69-35.08-14l-24-5.42c-10.27-2.29-21.4-4.57-30.53-9.42-9.41-4.85-28.81-17.68-28.81-46.78,0-4.56.58-17.68,7.71-29.66,9.12-15.41,31.09-33.09,71.88-33.09,18,0,53.34,2.85,81.3,40.79l-31.1,23.1c-6.27-10-20.54-29.95-52.2-29.95-2,0-27.38-.28-35.65,15.41a18,18,0,0,0-2.29,9.12,17,17,0,0,0,2.57,9.13c4.85,8.27,16,10.84,34.52,14.84l20.82,4.56c19.11,4.28,40.22,10,53.63,25.67,5.7,6.28,11.69,15.41,11.69,34C1860.87,608.24,1855.17,622.22,1841.19,634.2Z" transform="translate(-156 -436.98)"/><path class="cls-1" d="M322,620.79c-9.41,12-31.37,34.23-71.88,34.23a97.88,97.88,0,0,1-40.5-8.55C186.81,635.63,156,608.24,156,548.63c0-10.84,0-39.65,18.54-66.18,9.7-14,32.8-39.08,77-39.08,38.51,0,58.76,19.11,67.89,31.95,6.56,9.69,17.95,36.2,13.69,46.85L297,517.91a63.47,63.47,0,0,0-6-18.63c-7.7-14.27-22.82-21.68-38.79-21.4a51.53,51.53,0,0,0-23.39,5.42c-14.84,7.42-32,26.82-32,64.47,0,5.7.29,29.67,12,47.64a52.8,52.8,0,0,0,43.93,24c15.69,0,27.38-6.28,37.08-18.26a88.43,88.43,0,0,0,8-12.27,102.79,102.79,0,0,0,3.71-10l38,5C337.4,596.67,328.86,612,322,620.79Z" transform="translate(-156 -436.98)"/><path class="cls-1" d="M359.29,647.76V446.37h37.93V613.53l97.7.17v34.06Z" transform="translate(-156 -436.98)"/><path class="cls-1" d="M653.66,606.68c-6.56,20.26-29.67,46.21-79,46.21-23.68,0-47.36-5.7-63.9-24a58.55,58.55,0,0,1-12.84-21.68c-3.14-10.26-3.14-19.68-3.14-41.07V446.37h37.94v123.8c0,12,0,16.26,2,22.25,3.71,12,14.55,24,41.36,24,4.85,0,32.52,0,40.79-22.82,2.28-6.56,2.57-12,2.57-25.38V446.37h37.65v116.1C657.08,585.58,657.37,595.27,653.66,606.68Z" transform="translate(-156 -436.98)"/><path class="cls-1" d="M827.94,632.07c-24.25,20.54-56.77,20.82-65.89,20.82-12,0-50.49-.57-78.45-29.95-12-13.5-18-36.6-20.51-41.17l42.48,6.09C714.41,601,731,618.09,768,618.09a70.18,70.18,0,0,0,14.83-1.42c4.28-.86,24-6.28,24-25.1a20.55,20.55,0,0,0-3.71-12c-6.84-9.12-25.1-11.69-35.08-14l-24-5.42c-10.26-2.28-21.39-4.57-30.52-9.42-9.41-4.84-28.81-17.68-28.81-46.78,0-4.56.57-17.68,7.7-29.66,9.13-15.41,31.1-33.09,71.89-33.09,18,0,53.34,2.85,81.29,40.79l-31.09,23.11c-6.27-10-20.54-30-52.2-30-2,0-27.38-.28-35.65,15.41a18,18,0,0,0-2.29,9.13,17,17,0,0,0,2.57,9.12c4.85,8.28,16,10.84,34.51,14.84l20.83,4.56c19.11,4.28,40.22,10,53.62,25.67,5.71,6.28,11.7,15.41,11.7,34C847.62,606.11,841.92,620.09,827.94,632.07Z" transform="translate(-156 -436.98)"/><path class="cls-1" d="M943.74,480.32V647.76H906.09V480.32l-59.94-.73v-34h163.91v34Z" transform="translate(-156 -436.98)"/><path class="cls-1" d="M1163.93,619.83c-4.56,4.85-16.26,16.54-34.23,23.1-6.27,2.29-18,5.71-35.08,5.71-28.53,0-50.21-9.42-69-31.1-18.83-21.39-26.82-46.49-26.82-74.45a124,124,0,0,1,6-39.07c13.12-40.22,47.64-67,90.71-67,38.8,0,61.9,21.11,71.31,31.95,10.56,12,25.39,35.37,25.11,73.88C1191.89,555.36,1190.46,591,1163.93,619.83Z" transform="translate(-156 -436.98)"/><path class="cls-1" d="M1360.49,647.76l3.7-165.44-43.64,165.44h-33.94L1243,482.32l3.71,165.44h-36.79V446.37h54.76L1304,595.84l38.79-149.47h54.48V647.76Z" transform="translate(-156 -436.98)"/><path class="cls-1" d="M1423,647.76V443.41h46.84V647.76Z" transform="translate(-156 -436.98)"/><path class="cls-1" d="M1654.57,618.67c-9.41,12-31.38,34.22-71.88,34.22a97.89,97.89,0,0,1-40.51-8.55c-22.82-10.84-53.63-38.23-53.63-97.84,0-10.84,0-39.65,18.54-66.18,9.7-14,32.81-39.08,77-39.08,38.51,0,58.76,19.11,67.89,31.95,6.56,9.7,18,36.21,13.69,46.85l-36.18-4.26a64.1,64.1,0,0,0-6-18.63c-7.7-14.26-22.82-21.68-38.8-21.4a51.57,51.57,0,0,0-23.39,5.42c-14.83,7.42-32,26.82-32,64.47,0,5.71.29,29.67,12,47.64a52.76,52.76,0,0,0,43.92,24c15.69,0,27.39-6.28,37.09-18.26a88.76,88.76,0,0,0,8-12.26,101.58,101.58,0,0,0,3.71-10l38,5C1670,594.54,1661.42,609.82,1654.57,618.67Z" transform="translate(-156 -436.98)"/><path class="cls-1" d="M1843.32,632.07c-24.25,20.54-56.77,20.82-65.89,20.82-12,0-50.49-.57-78.45-29.95-12-13.5-18-36.6-20.51-41.17l42.48,6.09c8.84,13.12,25.38,30.23,62.47,30.23a70.18,70.18,0,0,0,14.83-1.42c4.28-.86,24-6.28,24-25.1a20.48,20.48,0,0,0-3.71-12c-6.84-9.12-25.1-11.69-35.08-14l-24-5.42c-10.27-2.28-21.4-4.57-30.53-9.42-9.41-4.84-28.81-17.68-28.81-46.78,0-4.56.57-17.68,7.7-29.66,9.13-15.41,31.1-33.09,71.89-33.09,18,0,53.34,2.85,81.29,40.79l-31.09,23.11c-6.27-10-20.54-30-52.2-30-2,0-27.38-.28-35.65,15.41a18,18,0,0,0-2.29,9.13,17,17,0,0,0,2.57,9.12c4.85,8.28,16,10.84,34.51,14.84l20.83,4.56c19.11,4.28,40.22,10,53.62,25.67,5.71,6.28,11.7,15.41,11.7,34C1863,606.11,1857.3,620.09,1843.32,632.07Z" transform="translate(-156 -436.98)"/><path class="cls-1" d="M324.14,618.67c-9.41,12-31.37,34.22-71.88,34.22a97.85,97.85,0,0,1-40.5-8.55c-22.82-10.84-53.63-38.23-53.63-97.84,0-10.84,0-39.65,18.54-66.18,9.7-14,32.8-39.08,77-39.08,38.51,0,58.76,19.11,67.89,31.95,6.56,9.7,17.95,36.21,13.69,46.85l-36.19-4.26a63.78,63.78,0,0,0-6-18.63c-7.7-14.26-22.82-21.68-38.79-21.4a51.53,51.53,0,0,0-23.39,5.42c-14.84,7.42-32,26.82-32,64.47,0,5.71.29,29.67,12,47.64a52.8,52.8,0,0,0,43.93,24c15.69,0,27.38-6.28,37.08-18.26a90.14,90.14,0,0,0,8-12.26,104.28,104.28,0,0,0,3.71-10l38,5C339.53,594.54,331,609.82,324.14,618.67Z" transform="translate(-156 -436.98)"/><path class="cls-1" d="M357.16,649.89V448.5H395.1V615.66l97.69.17v34.06Z" transform="translate(-156 -436.98)"/><path class="cls-1" d="M651.53,608.81C645,629.07,621.87,655,572.52,655c-23.68,0-47.36-5.7-63.9-24a58.55,58.55,0,0,1-12.84-21.68c-3.13-10.27-3.13-19.68-3.13-41.07V448.5h37.94V572.3c0,12,0,16.26,2,22.25,3.71,12,14.55,24,41.36,24,4.85,0,32.52,0,40.79-22.82,2.29-6.56,2.57-12,2.57-25.39V448.5H655V564.6C655,587.7,655.24,597.4,651.53,608.81Z" transform="translate(-156 -436.98)"/><path class="cls-1" d="M825.81,634.2C801.56,654.74,769.05,655,759.92,655c-12,0-50.49-.57-78.45-29.95-12-13.5-18-36.61-20.51-41.17L703.44,590c8.84,13.12,25.38,30.23,62.47,30.23a70.18,70.18,0,0,0,14.83-1.42c4.28-.86,24-6.28,24-25.11a20.47,20.47,0,0,0-3.71-12c-6.84-9.12-25.1-11.69-35.08-14l-24-5.42c-10.27-2.29-21.4-4.57-30.53-9.42-9.41-4.85-28.81-17.68-28.81-46.78,0-4.56.58-17.68,7.71-29.66,9.12-15.41,31.09-33.09,71.88-33.09,18,0,53.34,2.85,81.3,40.79l-31.1,23.1c-6.27-10-20.54-29.95-52.2-29.95-2,0-27.38-.28-35.65,15.41a18,18,0,0,0-2.29,9.12,17,17,0,0,0,2.57,9.13c4.85,8.27,16,10.84,34.52,14.84l20.82,4.56c19.11,4.28,40.22,10,53.63,25.67,5.7,6.28,11.69,15.41,11.69,34C845.49,608.24,839.79,622.22,825.81,634.2Z" transform="translate(-156 -436.98)"/><path class="cls-1" d="M941.62,482.45V649.89H904V482.45L844,481.72V447.66h163.91v34.06Z" transform="translate(-156 -436.98)"/><path class="cls-1" d="M1161.8,622c-4.56,4.85-16.25,16.54-34.23,23.1-6.27,2.28-18,5.71-35.08,5.71-28.53,0-50.2-9.42-69-31.1-18.83-21.39-26.82-46.49-26.82-74.45a124,124,0,0,1,6-39.08c13.13-40.22,47.64-67,90.71-67,38.8,0,61.9,21.11,71.32,31.95,10.55,12,25.38,35.37,25.1,73.88C1189.76,557.49,1188.33,593.15,1161.8,622Z" transform="translate(-156 -436.98)"/><path class="cls-1" d="M1358.36,649.89l3.71-165.45-43.65,165.45h-33.94l-43.65-165.45,3.71,165.45h-36.79V448.5h54.76L1301.88,598l38.79-149.47h54.48V649.89Z" transform="translate(-156 -436.98)"/><path class="cls-1" d="M1420.9,649.89V445.54h46.83V649.89Z" transform="translate(-156 -436.98)"/><path class="cls-1" d="M1652.44,620.79c-9.41,12-31.38,34.23-71.88,34.23a97.89,97.89,0,0,1-40.51-8.55c-22.82-10.84-53.62-38.23-53.62-97.84,0-10.84,0-39.65,18.54-66.18,9.7-14,32.8-39.08,77-39.08,38.51,0,58.76,19.11,67.89,31.95,6.56,9.69,18,36.2,13.7,46.85l-36.19-4.26a63.78,63.78,0,0,0-6-18.63c-7.7-14.27-22.82-21.68-38.8-21.4a51.57,51.57,0,0,0-23.39,5.42c-14.83,7.42-31.94,26.82-31.94,64.47,0,5.7.28,29.67,12,47.64a52.76,52.76,0,0,0,43.92,24c15.69,0,27.39-6.28,37.09-18.26a88.06,88.06,0,0,0,8-12.27,97.67,97.67,0,0,0,3.71-10l38,5C1667.82,596.67,1659.29,612,1652.44,620.79Z" transform="translate(-156 -436.98)"/><path class="cls-1" d="M1841.19,634.2c-24.25,20.54-56.76,20.82-65.89,20.82-12,0-50.49-.57-78.45-29.95-12-13.5-17.95-36.61-20.51-41.17l42.48,6.09c8.84,13.12,25.39,30.23,62.47,30.23a70.18,70.18,0,0,0,14.83-1.42c4.28-.86,24-6.28,24-25.11a20.47,20.47,0,0,0-3.71-12c-6.84-9.12-25.1-11.69-35.08-14l-24-5.42c-10.27-2.29-21.4-4.57-30.53-9.42-9.41-4.85-28.81-17.68-28.81-46.78,0-4.56.58-17.68,7.71-29.66,9.12-15.41,31.09-33.09,71.88-33.09,18,0,53.34,2.85,81.3,40.79l-31.1,23.1c-6.27-10-20.54-29.95-52.2-29.95-2,0-27.38-.28-35.65,15.41a18,18,0,0,0-2.29,9.12,17,17,0,0,0,2.57,9.13c4.85,8.27,16,10.84,34.52,14.84l20.82,4.56c19.11,4.28,40.22,10,53.63,25.67,5.7,6.28,11.69,15.41,11.69,34C1860.87,608.24,1855.17,622.22,1841.19,634.2Z" transform="translate(-156 -436.98)"/><path class="cls-1" d="M322,620.79c-9.41,12-31.37,34.23-71.88,34.23a97.88,97.88,0,0,1-40.5-8.55C186.81,635.63,156,608.24,156,548.63c0-10.84,0-39.65,18.54-66.18,9.7-14,32.8-39.08,77-39.08,38.51,0,58.76,19.11,67.89,31.95,6.56,9.69,17.95,36.2,13.69,46.85L297,517.91a63.47,63.47,0,0,0-6-18.63c-7.7-14.27-22.82-21.68-38.79-21.4a51.53,51.53,0,0,0-23.39,5.42c-14.84,7.42-32,26.82-32,64.47,0,5.7.29,29.67,12,47.64a52.8,52.8,0,0,0,43.93,24c15.69,0,27.38-6.28,37.08-18.26a88.43,88.43,0,0,0,8-12.27,102.79,102.79,0,0,0,3.71-10l38,5C337.4,596.67,328.86,612,322,620.79Z" transform="translate(-156 -436.98)"/><path class="cls-1" d="M357.16,649.89V448.5H395.1V615.66l97.69.17v34.06Z" transform="translate(-156 -436.98)"/><path class="cls-1" d="M651.53,608.81C645,629.07,621.87,655,572.52,655c-23.68,0-47.36-5.7-63.9-24a58.55,58.55,0,0,1-12.84-21.68c-3.13-10.27-3.13-19.68-3.13-41.07V448.5h37.94V572.3c0,12,0,16.26,2,22.25,3.71,12,14.55,24,41.36,24,4.85,0,32.52,0,40.79-22.82,2.29-6.56,2.57-12,2.57-25.39V448.5H655V564.6C655,587.7,655.24,597.4,651.53,608.81Z" transform="translate(-156 -436.98)"/><path class="cls-1" d="M825.81,634.2C801.56,654.74,769.05,655,759.92,655c-12,0-50.49-.57-78.45-29.95-12-13.5-18-36.61-20.51-41.17L703.44,590c8.84,13.12,25.38,30.23,62.47,30.23a70.18,70.18,0,0,0,14.83-1.42c4.28-.86,24-6.28,24-25.11a20.47,20.47,0,0,0-3.71-12c-6.84-9.12-25.1-11.69-35.08-14l-24-5.42c-10.27-2.29-21.4-4.57-30.53-9.42-9.41-4.85-28.81-17.68-28.81-46.78,0-4.56.58-17.68,7.71-29.66,9.12-15.41,31.09-33.09,71.88-33.09,18,0,53.34,2.85,81.3,40.79l-31.1,23.1c-6.27-10-20.54-29.95-52.2-29.95-2,0-27.38-.28-35.65,15.41a18,18,0,0,0-2.29,9.12,17,17,0,0,0,2.57,9.13c4.85,8.27,16,10.84,34.52,14.84l20.82,4.56c19.11,4.28,40.22,10,53.63,25.67,5.7,6.28,11.69,15.41,11.69,34C845.49,608.24,839.79,622.22,825.81,634.2Z" transform="translate(-156 -436.98)"/><path class="cls-1" d="M941.62,482.45V649.89H904V482.45L844,481.72V447.66h163.91v34.06Z" transform="translate(-156 -436.98)"/><path class="cls-1" d="M1161.8,622c-4.56,4.85-16.25,16.54-34.23,23.1-6.27,2.28-18,5.71-35.08,5.71-28.53,0-50.2-9.42-69-31.1-18.83-21.39-26.82-46.49-26.82-74.45a124,124,0,0,1,6-39.08c13.13-40.22,47.64-67,90.71-67,38.8,0,61.9,21.11,71.32,31.95,10.55,12,25.38,35.37,25.1,73.88C1189.76,557.49,1188.33,593.15,1161.8,622Z" transform="translate(-156 -436.98)"/><path class="cls-1" d="M1358.36,649.89l3.71-165.45-43.65,165.45h-33.94l-43.65-165.45,3.71,165.45h-36.79V448.5h54.76L1301.88,598l38.79-149.47h54.48V649.89Z" transform="translate(-156 -436.98)"/><path class="cls-1" d="M1420.9,649.89V445.54h46.83V649.89Z" transform="translate(-156 -436.98)"/><path class="cls-1" d="M1652.44,620.79c-9.41,12-31.38,34.23-71.88,34.23a97.89,97.89,0,0,1-40.51-8.55c-22.82-10.84-53.62-38.23-53.62-97.84,0-10.84,0-39.65,18.54-66.18,9.7-14,32.8-39.08,77-39.08,38.51,0,58.76,19.11,67.89,31.95,6.56,9.69,18,36.2,13.7,46.85l-36.19-4.26a63.78,63.78,0,0,0-6-18.63c-7.7-14.27-22.82-21.68-38.8-21.4a51.57,51.57,0,0,0-23.39,5.42c-14.83,7.42-31.94,26.82-31.94,64.47,0,5.7.28,29.67,12,47.64a52.76,52.76,0,0,0,43.92,24c15.69,0,27.39-6.28,37.09-18.26a88.06,88.06,0,0,0,8-12.27,97.67,97.67,0,0,0,3.71-10l38,5C1667.82,596.67,1659.29,612,1652.44,620.79Z" transform="translate(-156 -436.98)"/><path class="cls-1" d="M1841.19,634.2c-24.25,20.54-56.76,20.82-65.89,20.82-12,0-50.49-.57-78.45-29.95-12-13.5-17.95-36.61-20.51-41.17l42.48,6.09c8.84,13.12,25.39,30.23,62.47,30.23a70.18,70.18,0,0,0,14.83-1.42c4.28-.86,24-6.28,24-25.11a20.47,20.47,0,0,0-3.71-12c-6.84-9.12-25.1-11.69-35.08-14l-24-5.42c-10.27-2.29-21.4-4.57-30.53-9.42-9.41-4.85-28.81-17.68-28.81-46.78,0-4.56.58-17.68,7.71-29.66,9.12-15.41,31.09-33.09,71.88-33.09,18,0,53.34,2.85,81.3,40.79l-31.1,23.1c-6.27-10-20.54-29.95-52.2-29.95-2,0-27.38-.28-35.65,15.41a18,18,0,0,0-2.29,9.12,17,17,0,0,0,2.57,9.13c4.85,8.27,16,10.84,34.52,14.84l20.82,4.56c19.11,4.28,40.22,10,53.63,25.67,5.7,6.28,11.69,15.41,11.69,34C1860.87,608.24,1855.17,622.22,1841.19,634.2Z" transform="translate(-156 -436.98)"/><path class="cls-1" d="M322,620.79c-9.41,12-31.37,34.23-71.88,34.23a97.88,97.88,0,0,1-40.5-8.55C186.81,635.63,156,608.24,156,548.63c0-10.84,0-39.65,18.54-66.18,9.7-14,32.8-39.08,77-39.08,38.51,0,58.76,19.11,67.89,31.95,6.56,9.69,17.95,36.2,13.69,46.85L297,517.91a63.47,63.47,0,0,0-6-18.63c-7.7-14.27-22.82-21.68-38.79-21.4a51.53,51.53,0,0,0-23.39,5.42c-14.84,7.42-32,26.82-32,64.47,0,5.7.29,29.67,12,47.64a52.8,52.8,0,0,0,43.93,24c15.69,0,27.38-6.28,37.08-18.26a88.43,88.43,0,0,0,8-12.27,102.79,102.79,0,0,0,3.71-10l38,5C337.4,596.67,328.86,612,322,620.79Z" transform="translate(-156 -436.98)"/><path class="cls-1" d="M357.16,649.89V448.5H395.1V615.66l97.69.17v34.06Z" transform="translate(-156 -436.98)"/><path class="cls-1" d="M651.53,608.81C645,629.07,621.87,655,572.52,655c-23.68,0-47.36-5.7-63.9-24a58.55,58.55,0,0,1-12.84-21.68c-3.13-10.27-3.13-19.68-3.13-41.07V448.5h37.94V572.3c0,12,0,16.26,2,22.25,3.71,12,14.55,24,41.36,24,4.85,0,32.52,0,40.79-22.82,2.29-6.56,2.57-12,2.57-25.39V448.5H655V564.6C655,587.7,655.24,597.4,651.53,608.81Z" transform="translate(-156 -436.98)"/><path class="cls-1" d="M825.81,634.2C801.56,654.74,769.05,655,759.92,655c-12,0-50.49-.57-78.45-29.95-12-13.5-18-36.61-20.51-41.17L703.44,590c8.84,13.12,25.38,30.23,62.47,30.23a70.18,70.18,0,0,0,14.83-1.42c4.28-.86,24-6.28,24-25.11a20.47,20.47,0,0,0-3.71-12c-6.84-9.12-25.1-11.69-35.08-14l-24-5.42c-10.27-2.29-21.4-4.57-30.53-9.42-9.41-4.85-28.81-17.68-28.81-46.78,0-4.56.58-17.68,7.71-29.66,9.12-15.41,31.09-33.09,71.88-33.09,18,0,53.34,2.85,81.3,40.79l-31.1,23.1c-6.27-10-20.54-29.95-52.2-29.95-2,0-27.38-.28-35.65,15.41a18,18,0,0,0-2.29,9.12,17,17,0,0,0,2.57,9.13c4.85,8.27,16,10.84,34.52,14.84l20.82,4.56c19.11,4.28,40.22,10,53.63,25.67,5.7,6.28,11.69,15.41,11.69,34C845.49,608.24,839.79,622.22,825.81,634.2Z" transform="translate(-156 -436.98)"/><path class="cls-1" d="M941.62,482.45V649.89H904V482.45L844,481.72V447.66h163.91v34.06Z" transform="translate(-156 -436.98)"/><path class="cls-1" d="M1161.8,622c-4.56,4.85-16.25,16.54-34.23,23.1-6.27,2.28-18,5.71-35.08,5.71-28.53,0-50.2-9.42-69-31.1-18.83-21.39-26.82-46.49-26.82-74.45a124,124,0,0,1,6-39.08c13.13-40.22,47.64-67,90.71-67,38.8,0,61.9,21.11,71.32,31.95,10.55,12,25.38,35.37,25.1,73.88C1189.76,557.49,1188.33,593.15,1161.8,622Z" transform="translate(-156 -436.98)"/><path class="cls-1" d="M1358.36,649.89l3.71-165.45-43.65,165.45h-33.94l-43.65-165.45,3.71,165.45h-36.79V448.5h54.76L1301.88,598l38.79-149.47h54.48V649.89Z" transform="translate(-156 -436.98)"/><path class="cls-1" d="M1420.9,649.89V445.54h46.83V649.89Z" transform="translate(-156 -436.98)"/><path class="cls-1" d="M1652.44,620.79c-9.41,12-31.38,34.23-71.88,34.23a97.89,97.89,0,0,1-40.51-8.55c-22.82-10.84-53.62-38.23-53.62-97.84,0-10.84,0-39.65,18.54-66.18,9.7-14,32.8-39.08,77-39.08,38.51,0,58.76,19.11,67.89,31.95,6.56,9.69,18,36.2,13.7,46.85l-36.19-4.26a63.78,63.78,0,0,0-6-18.63c-7.7-14.27-22.82-21.68-38.8-21.4a51.57,51.57,0,0,0-23.39,5.42c-14.83,7.42-31.94,26.82-31.94,64.47,0,5.7.28,29.67,12,47.64a52.76,52.76,0,0,0,43.92,24c15.69,0,27.39-6.28,37.09-18.26a88.06,88.06,0,0,0,8-12.27,97.67,97.67,0,0,0,3.71-10l38,5C1667.82,596.67,1659.29,612,1652.44,620.79Z" transform="translate(-156 -436.98)"/><path class="cls-1" d="M1841.19,634.2c-24.25,20.54-56.76,20.82-65.89,20.82-12,0-50.49-.57-78.45-29.95-12-13.5-17.95-36.61-20.51-41.17l42.48,6.09c8.84,13.12,25.39,30.23,62.47,30.23a70.18,70.18,0,0,0,14.83-1.42c4.28-.86,24-6.28,24-25.11a20.47,20.47,0,0,0-3.71-12c-6.84-9.12-25.1-11.69-35.08-14l-24-5.42c-10.27-2.29-21.4-4.57-30.53-9.42-9.41-4.85-28.81-17.68-28.81-46.78,0-4.56.58-17.68,7.71-29.66,9.12-15.41,31.09-33.09,71.88-33.09,18,0,53.34,2.85,81.3,40.79l-31.1,23.1c-6.27-10-20.54-29.95-52.2-29.95-2,0-27.38-.28-35.65,15.41a18,18,0,0,0-2.29,9.12,17,17,0,0,0,2.57,9.13c4.85,8.27,16,10.84,34.52,14.84l20.82,4.56c19.11,4.28,40.22,10,53.63,25.67,5.7,6.28,11.69,15.41,11.69,34C1860.87,608.24,1855.17,622.22,1841.19,634.2Z" transform="translate(-156 -436.98)"/><path class="cls-1" d="M322,620.79c-9.41,12-31.37,34.23-71.88,34.23a97.88,97.88,0,0,1-40.5-8.55C186.81,635.63,156,608.24,156,548.63c0-10.84,0-39.65,18.54-66.18,9.7-14,32.8-39.08,77-39.08,38.51,0,58.76,19.11,67.89,31.95,6.56,9.69,17.95,36.2,13.69,46.85L297,517.91a63.47,63.47,0,0,0-6-18.63c-7.7-14.27-22.82-21.68-38.79-21.4a51.53,51.53,0,0,0-23.39,5.42c-14.84,7.42-32,26.82-32,64.47,0,5.7.29,29.67,12,47.64a52.8,52.8,0,0,0,43.93,24c15.69,0,27.38-6.28,37.08-18.26a88.43,88.43,0,0,0,8-12.27,102.79,102.79,0,0,0,3.71-10l38,5C337.4,596.67,328.86,612,322,620.79Z" transform="translate(-156 -436.98)"/><circle class="cls-2" cx="931.31" cy="102.18" r="6.69"/><circle class="cls-2" cx="957.3" cy="116.05" r="7.13"/><circle class="cls-2" cx="938.14" cy="116.05" r="7.13"/><circle class="cls-2" cx="949.55" cy="98.58" r="6.69"/><circle class="cls-3" cx="955.17" cy="24.52" r="7.13"/><circle class="cls-3" cx="950.92" cy="41.55" r="7.13"/><circle class="cls-3" cx="972.2" cy="26.65" r="7.13"/><circle class="cls-4" cx="882.8" cy="124.57" r="7.13"/><circle class="cls-4" cx="867.9" cy="135.21" r="7.13"/><circle class="cls-4" cx="878.54" cy="147.98" r="7.13"/><circle class="cls-4" cx="865.77" cy="116.05" r="7.13"/><circle class="cls-5" cx="991.88" cy="165.54" r="6.61"/><circle class="cls-5" cx="976.98" cy="163.41" r="6.61"/><circle class="cls-5" cx="981.23" cy="178.31" r="6.61"/></svg>